# xmcd CD database file
#
# Track frame offsets:
#	150
#	24434
#	46342
#	66843
#	96015
#	117273
#	138158
#	170795
#	182691
#	202956
#	220545
#
# Disc length: 3184 seconds
#
# Revision: 2
# Processed by: cddbd v1.4PL0 Copyright (c) Steve Scherf et al.
# Submitted via: CDex 1.50beta10
#
DISCID=930c6e0b
DTITLE=Leasley Olsher - Jazz Me
DYEAR=1900
DGENRE=Jazz
TTITLE0=Jazz Me 
TTITLE1=Summertime 
TTITLE2=When I'm With You 
TTITLE3=Lay All Your Love On Me 
TTITLE4=Love Look what You've Done to Me 
TTITLE5=Take It Slow 
TTITLE6='Round Midnight 
TTITLE7=With You I'm Born Again 
TTITLE8=Take Five 
TTITLE9=Loving You 
TTITLE10=Weekend in L.A. 
EXTD=
EXTT0=
EXTT1=
EXTT2=
EXTT3=
EXTT4=
EXTT5=
EXTT6=
EXTT7=
EXTT8=
EXTT9=
EXTT10=
PLAYORDER=
